<?xml version="1.0" standalone="no"?>
<!DOCTYPE svg PUBLIC "-//W3C//DTD SVG 20010904//EN"
 "http://www.w3.org/TR/2001/REC-SVG-20010904/DTD/svg10.dtd">
<svg version="1.0" xmlns="http://www.w3.org/2000/svg"
 width="500.000000pt" height="500.000000pt" viewBox="0 0 500.000000 500.000000"
 preserveAspectRatio="xMidYMid meet">

<g transform="translate(0.000000,500.000000) scale(0.100000,-0.100000)"
fill="#000000" stroke="none">
<path d="M3290 992 c-57 -8 -67 -66 -15 -88 31 -13 39 -13 65 1 58 30 20 98
-50 87z"/>
<path d="M1110 963 c0 -10 12 -94 27 -186 l28 -168 70 3 70 3 15 110 c8 61 18
106 21 100 4 -5 12 -56 19 -112 l12 -103 72 0 71 0 28 178 c15 97 28 180 27
185 0 4 -34 7 -76 7 l-77 0 8 -110 c4 -65 3 -110 -2 -110 -5 0 -17 37 -27 83
-25 120 -24 117 -56 117 -32 0 -35 -8 -61 -130 -21 -100 -32 -83 -24 38 l7
112 -76 0 c-66 0 -76 -2 -76 -17z"/>
<path d="M2850 795 l0 -185 113 0 c136 1 185 11 215 45 47 55 10 135 -63 135
-19 0 -35 5 -35 10 0 6 7 10 16 10 9 0 31 7 49 16 43 20 54 61 28 104 -24 40
-62 50 -205 50 l-118 0 0 -185z m215 35 c0 -11 -14 -16 -50 -18 -46 -3 -51 -1
-51 18 0 19 5 21 51 18 36 -2 50 -7 50 -18z m4 -49 c25 -16 0 -31 -54 -31 -48
0 -53 2 -48 20 4 16 14 20 47 20 22 0 47 -4 55 -9z"/>
<path d="M2277 953 c-2 -5 -7 -20 -11 -35 -4 -17 -16 -30 -36 -36 -28 -10 -30
-14 -30 -66 0 -49 2 -56 20 -56 18 0 20 -7 20 -55 0 -79 20 -97 103 -93 l62 3
3 52 3 52 -33 3 c-22 2 -34 9 -36 21 -3 14 4 17 32 17 l36 0 0 54 c0 54 0 55
-32 58 -31 3 -33 6 -36 46 -3 39 -5 42 -32 42 -16 0 -31 -3 -33 -7z"/>
<path d="M1623 873 c-20 -4 -23 -11 -23 -54 0 -49 0 -49 28 -42 50 13 103 7
125 -15 29 -30 15 -38 -21 -12 -23 17 -36 20 -67 14 -52 -9 -75 -35 -75 -82 0
-50 24 -72 78 -72 42 0 82 28 82 57 0 7 5 13 10 13 7 0 8 -13 4 -35 l-6 -35
71 0 71 0 0 55 c0 46 -3 55 -18 55 -14 0 -17 7 -14 39 5 52 -11 79 -61 102
-40 18 -125 23 -184 12z m145 -165 c-5 -15 -42 -22 -64 -14 -25 10 -5 26 32
26 24 0 34 -4 32 -12z"/>
<path d="M1965 871 c-91 -38 -53 -131 54 -131 37 0 62 -10 55 -21 -8 -13 -65
-11 -117 5 l-47 14 0 -58 c0 -56 1 -58 31 -64 58 -11 169 -7 198 9 80 41 42
117 -65 130 -29 4 -54 11 -54 16 0 12 82 11 114 -1 26 -9 26 -9 26 40 0 45 -3
52 -26 60 -30 12 -141 12 -169 1z"/>
<path d="M2494 861 c-46 -28 -64 -59 -64 -109 0 -95 52 -142 158 -142 95 0
102 5 102 62 0 47 -1 49 -22 41 -35 -12 -116 -9 -130 5 -9 9 7 12 80 12 103 0
107 4 78 75 -29 69 -133 98 -202 56z m114 -98 c2 -9 -9 -13 -37 -13 -39 0 -50
8 -34 24 11 11 66 2 71 -11z"/>
<path d="M3553 858 c-12 -13 -26 -39 -31 -58 -10 -35 -10 -35 -11 18 l-1 52
-55 0 -55 0 0 -130 0 -130 55 0 55 0 0 69 c0 61 2 70 20 76 39 12 51 -11 44
-81 l-7 -64 56 0 c35 0 56 4 59 13 3 11 3 116 0 183 -4 67 -85 100 -129 52z"/>
<path d="M3750 862 c-36 -18 -46 -38 -36 -77 7 -27 24 -35 95 -44 33 -4 56
-11 59 -20 4 -11 -6 -13 -54 -8 -33 4 -71 9 -85 13 -26 6 -26 5 -25 -47 1 -63
9 -67 116 -68 101 -1 144 19 148 71 3 32 -1 39 -26 52 -16 8 -52 18 -80 22
-29 3 -52 10 -52 15 0 12 83 11 114 -1 26 -9 26 -9 26 44 0 52 -1 54 -31 60
-58 11 -133 6 -169 -12z"/>
<path d="M3220 816 c0 -49 2 -55 23 -58 20 -3 22 -9 25 -75 l3 -73 49 0 50 0
0 130 0 130 -75 0 -75 0 0 -54z"/>
</g>
</svg>
